<svg width="124" height="36" viewBox="0 0 124 36" fill="none" xmlns="http://www.w3.org/2000/svg">
<path fill-rule="evenodd" clip-rule="evenodd" d="M5.54263 6.49445H24.5528V10.4232H17.5228V26.9799H12.2857V10.4936H5.47058L5.54263 6.49445Z" fill="#0E1552"/>
<path fill-rule="evenodd" clip-rule="evenodd" d="M27.4939 15.8951C29.8613 15.8951 30.1482 18.7707 30.1482 18.7707H24.6248C24.6248 18.7707 24.9117 15.8951 27.4939 15.8951ZM24.6248 21.0172H34.596C34.596 21.0172 35.3853 12.8785 27.3505 12.8785C23.1182 12.8785 20.105 15.6843 20.105 20.4555C20.105 26.91 25.8439 27.6115 27.7808 27.6115C31.8697 27.6115 34.2376 25.6468 34.2376 25.6468V22.5604C34.2376 22.5604 32.3007 24.6654 29.0005 24.6654C24.3379 24.6654 24.6248 21.0172 24.6248 21.0172ZM50.1632 15.8951C52.5305 15.8951 52.8174 18.7707 52.8174 18.7707H47.2941C47.2941 18.7707 47.5803 15.8951 50.1632 15.8951ZM47.2941 21.0172H57.2652C57.2652 21.0172 58.0546 12.8785 50.0197 12.8785C45.8589 12.8785 42.7742 15.6843 42.7742 20.4555C42.7742 26.91 48.5131 27.6115 50.4501 27.6115C54.611 27.6115 56.9069 25.6468 56.9069 25.6468V22.5604C56.9069 22.5604 54.9699 24.6654 51.6698 24.6654C47.0065 24.6654 47.2941 21.0172 47.2941 21.0172ZM36.3181 8.66923L41.0528 6.56488V26.9799H36.246L36.3181 8.66923ZM56.7635 12.8081H61.4975L64.6542 20.4555L67.8816 12.8081H70.1061L73.2635 20.3856L76.4909 12.8081H80.9387L74.7701 26.91H72.0431L68.8157 19.6137L65.6577 26.9799H63.0041L56.7635 12.8081ZM87.7538 15.8951C90.1211 15.8951 90.4087 18.7707 90.4087 18.7707H84.8126C84.8126 18.7707 85.1716 15.8951 87.7538 15.8951ZM84.8126 21.0172H94.8565C94.8565 21.0172 95.6458 12.8785 87.6103 12.8785C83.3774 12.8785 80.3642 15.6843 80.3642 20.4555C80.3642 26.91 86.1037 27.6115 88.0401 27.6115C92.1295 27.6115 94.4969 25.6468 94.4969 25.6468V22.5604C94.4969 22.5604 92.5593 24.6654 89.2598 24.6654C84.5978 24.6654 84.8126 21.0172 84.8126 21.0172ZM109.204 13.0893H118.529V16.5267H113.795V22.6309C113.795 24.0338 114.942 24.3144 115.948 24.3144C116.952 24.3144 118.458 23.6827 118.458 23.6827V26.7691C118.458 26.7691 117.023 27.5423 114.513 27.5423C112.001 27.5423 109.131 26.6295 109.131 22.6309C109.131 18.7009 109.204 13.0893 109.204 13.0893Z" fill="#0E1552"/>
<path fill-rule="evenodd" clip-rule="evenodd" d="M109.131 8.73968V11.3354H113.723V6.6347L109.131 8.73968Z" fill="#603EFF"/>
<path fill-rule="evenodd" clip-rule="evenodd" d="M106.837 17.298V14.2116C106.837 14.2116 105.043 12.8087 101.958 12.8087C98.8733 12.8087 96.4346 14.8432 96.4346 17.5792C96.4346 22.349 103.25 21.0172 103.25 23.472C103.25 24.0338 103.25 24.6648 101.527 24.6648C99.3757 24.5937 96.578 22.5598 96.578 22.5598V25.7166C96.578 25.7166 99.4478 27.541 102.316 27.541C105.186 27.541 107.697 25.7865 107.697 23.1203C107.697 18.0693 100.738 19.4023 100.738 17.0174C100.738 16.316 101.384 15.7548 103.034 15.7548C104.756 15.7548 106.837 17.298 106.837 17.298Z" fill="#0E1552"/>
</svg>
