<svg width="110" height="44" viewBox="0 0 110 44" fill="none" xmlns="http://www.w3.org/2000/svg">
<path fill-rule="evenodd" clip-rule="evenodd" d="M89.9228 12.3805C89.9228 12.3805 63.0277 3.80604 28.7823 9.79675C28.7823 9.79675 56.978 6.26567 89.9228 12.3805Z" fill="black"/>
<path fill-rule="evenodd" clip-rule="evenodd" d="M66.753 6.91019C66.753 6.91019 35.958 1.7438 6.35562 12.4374C6.35505 12.4374 33.5657 4.93494 66.753 6.91019ZM19.9193 17.0324V13.6121L22.9844 13.5872V17.0324H25.7065V19.2971H22.9844V24.8858C22.9844 25.9114 23.2589 26.8651 24.4253 26.8651C24.9743 26.8651 25.5004 26.7497 25.8206 26.5397L25.9125 28.9982C25.2722 29.1838 24.5628 29.2766 23.648 29.2929C21.2467 29.2929 19.9199 27.7759 19.9199 25.3975L19.9193 17.0324ZM1.79197 17.1484H4.98715V29.1148H1.79197V17.1484ZM7.10148 17.1478H10.0062V18.7675H10.0518C11.0168 17.3897 12.3271 16.8526 13.937 16.8526C16.7321 16.8526 17.9442 18.8603 17.9442 21.5595V29.1142H14.8797V22.722C14.8797 21.2573 14.8563 19.2809 12.8789 19.2809C10.6488 19.2809 10.166 21.7219 10.166 23.2592V29.1148H7.10148V17.1478ZM39.4099 17.1478H42.1315V19.8598H42.1771C42.3147 18.7408 43.5724 16.8526 45.4025 16.8526C45.6999 16.8526 46.02 16.8526 46.3402 16.946V20.0965C46.0657 19.9341 45.5167 19.8407 44.9677 19.836C42.4744 19.836 42.4744 22.9982 42.4744 24.7211V29.1136H39.4094L39.4099 17.1478ZM3.25745 11.9768C2.82255 11.9769 2.40548 12.1526 2.09801 12.4652C1.79054 12.7779 1.61784 13.2019 1.61792 13.644C1.618 14.0861 1.79083 14.5101 2.09841 14.8226C2.40599 15.1352 2.82312 15.3107 3.25802 15.3106C3.69293 15.3106 4.11 15.1349 4.41747 14.8222C4.72494 14.5095 4.89763 14.0855 4.89756 13.6434C4.89748 13.2013 4.72464 12.7774 4.41706 12.4648C4.10949 12.1523 3.69236 11.9767 3.25745 11.9768ZM32.8284 27.1488C34.3167 27.1488 35.6002 26.5809 36.7472 25.9184V28.4668C35.6236 29.091 34.3401 29.4141 32.6915 29.4141C28.7972 29.4141 26.5271 27.1494 26.5271 23.1664C26.5271 19.6968 28.3384 16.8491 32.0044 16.8491C36.3803 16.8491 37.6186 19.8836 37.6186 24.0719H29.462C29.5996 26.0362 30.9275 27.1488 32.8284 27.1488ZM29.462 21.9348H34.6831C34.5912 20.4196 33.9047 19.1138 32.1864 19.1138C30.4698 19.1138 29.5996 20.3262 29.462 21.9348Z" fill="black"/>
<path fill-rule="evenodd" clip-rule="evenodd" d="M47.8439 17.1478H50.7029V18.8139H50.7486C51.7079 17.3433 53.1003 16.8526 54.2417 16.8526C55.8875 16.8526 57.0533 17.4831 57.7165 18.9775C58.4252 17.5295 59.9546 16.8526 61.3921 16.8526C64.2957 16.8526 65.1192 18.8841 65.1192 21.5595V29.1142H62.0541V21.9778C62.0541 20.8617 62.0541 19.2809 60.2965 19.2809C58.2643 19.2809 58.0138 21.7457 58.0138 23.3033V29.1148H54.9499V21.9778C54.9499 20.8617 54.9499 19.2809 53.1922 19.2809C51.1606 19.2809 50.9095 21.7457 50.9095 23.3033V29.1148H47.8444L47.8439 17.1478ZM92.3036 17.1478H95.3687V29.1148H92.3036V17.1478ZM93.7982 11.9768C93.5829 11.9768 93.3697 12.0199 93.1708 12.1037C92.9718 12.1874 92.7911 12.3102 92.6389 12.465C92.4866 12.6197 92.3659 12.8034 92.2835 13.0056C92.2011 13.2079 92.1587 13.4246 92.1587 13.6434C92.1587 13.8623 92.2011 14.079 92.2835 14.2812C92.3659 14.4834 92.4866 14.6672 92.6389 14.8219C92.7911 14.9767 92.9718 15.0995 93.1708 15.1832C93.3697 15.267 93.5829 15.3101 93.7982 15.3101C94.233 15.3101 94.65 15.1345 94.9575 14.8219C95.265 14.5094 95.4377 14.0855 95.4377 13.6434C95.4377 13.2014 95.265 12.7775 94.9575 12.465C94.65 12.1524 94.233 11.9768 93.7982 11.9768ZM73.0926 27.1488C74.5815 27.1488 75.8643 26.5809 77.0114 25.9184V28.4668C75.8877 29.091 74.6037 29.4141 72.9556 29.4141C69.0614 29.4141 66.7918 27.1494 66.7918 23.1664C66.7918 19.6968 68.6031 16.8491 72.2691 16.8491C76.645 16.8491 77.8834 19.8836 77.8834 24.0719H69.7268C69.8637 26.0362 71.1923 27.1488 73.0926 27.1488ZM69.7268 21.9348H74.9473C74.856 20.4196 74.1694 19.1138 72.4517 19.1138C70.734 19.1138 69.8637 20.3262 69.7268 21.9348ZM90.4244 13.5848V29.3132H87.4506V27.9737H87.405C86.4908 29.1409 85.2347 29.6073 83.7961 29.6073C80.1883 29.6073 78.8649 26.5739 78.8649 23.294C78.8649 19.9903 80.1877 17.0504 83.7961 17.0504C85.3266 17.0504 86.3995 17.5876 87.3137 18.7553H87.3593V13.5843L90.4244 13.5848ZM87.3371 23.294C87.3371 21.6181 86.5604 19.4781 84.595 19.4781C82.6079 19.4781 82.0595 21.6883 82.0595 23.294C82.0595 24.9462 82.6313 27.179 84.6406 27.179C86.6739 27.1795 87.3371 24.9926 87.3371 23.294ZM107.631 29.1113H104.925C104.81 28.4825 104.81 27.6918 104.788 27.3576H104.742C104.033 28.6751 102.501 29.4141 101.106 29.4141C99.0232 29.4141 96.982 28.1431 96.982 25.8395C96.982 24.0609 97.83 23.0127 99.0004 22.4279C100.17 21.842 101.687 21.7254 102.972 21.7254H104.672C104.672 19.7734 103.822 19.1144 102.007 19.1144C100.698 19.1144 99.389 19.6324 98.3578 20.4318L98.2654 17.7506C99.4581 17.196 101.065 16.8491 102.375 16.8491C105.968 16.8491 107.446 18.3515 107.446 21.8884V23.4269C107.446 24.6393 107.47 25.5477 107.492 26.4341C107.515 27.3426 107.561 28.1796 107.631 29.1113ZM104.672 23.598H103.339C101.962 23.598 99.9175 23.8312 99.9175 25.6771C99.9175 26.7044 100.767 27.1488 101.869 27.1488C102.811 27.1488 103.546 26.7282 104.028 26.0745C104.534 25.3969 104.672 24.5325 104.672 23.598Z" fill="#1879BF"/>
<path fill-rule="evenodd" clip-rule="evenodd" d="M50.6436 35.8312C50.3218 35.9083 49.9742 35.9727 49.6398 35.9727C48.2131 35.9727 47.223 35.2488 47.223 33.7341C47.223 32.2009 48.1435 31.3424 49.6398 31.3424C49.9303 31.3424 50.3155 31.4004 50.6373 31.5245L50.574 32.285C50.2396 32.0924 49.9366 32.0472 49.621 32.0472C48.7119 32.0472 48.1435 32.7532 48.1435 33.6709C48.1435 34.5816 48.6993 35.2685 49.6398 35.2685C49.9868 35.2685 50.3971 35.1913 50.6054 35.0829L50.6436 35.8312ZM56.7127 31.4149H58.1268L59.1746 34.8125H59.1871L60.2337 31.4149H61.6478V35.9002H60.8021V32.1928H60.7884L59.6026 35.9002H58.758L57.5721 32.1928L57.5596 32.2055V35.9002H56.7127V31.4149ZM63.0511 31.4149H64.4658L65.5124 34.8125H65.5244L66.5721 31.4149H67.9868V35.9002H67.1394V32.1928H67.1274L65.9416 35.9002H65.0964L63.9105 32.1928L63.8974 32.2055V35.9002H63.0511V31.4149ZM69.2263 31.4149H70.1103V34.0027C70.1103 34.7673 70.35 35.2685 71.0257 35.2685C71.7013 35.2685 71.941 34.7679 71.941 34.0027V31.4149H72.825V34.2794C72.825 35.4791 72.1561 35.9733 71.0262 35.9733C69.8963 35.9733 69.2275 35.4791 69.2275 34.2794V31.4149H69.2263ZM74.0257 31.4149H75.1111L76.7866 34.7696H76.7985V31.4149H77.646V35.9002H76.5657L74.8851 32.5455H74.8714V35.9002H74.0257V31.4149ZM79.051 31.4149H79.9349V35.9002H79.051V31.4149ZM84.4735 35.8312C84.1516 35.9083 83.8047 35.9727 83.4702 35.9727C82.0436 35.9727 81.0529 35.2488 81.0529 33.7341C81.0529 32.2009 81.9734 31.3424 83.4702 31.3424C83.7601 31.3424 84.1459 31.4004 84.4678 31.5245L84.4044 32.285C84.07 32.0924 83.767 32.0472 83.4514 32.0472C82.5418 32.0472 81.9734 32.7532 81.9734 33.6709C81.9734 34.5816 82.5298 35.2685 83.4702 35.2685C83.8166 35.2685 84.2269 35.1913 84.4352 35.0829L84.4735 35.8312ZM90.8638 32.1191H89.6009V31.4149H93.0101V32.1191H91.7472V35.9002H90.8638V32.1191ZM93.9945 31.4149H94.8785V35.9002H93.9945V31.4149ZM100.824 31.4149H101.909L103.585 34.7696H103.597V31.4149H104.444V35.9002H103.364L101.683 32.5455H101.669V35.9002H100.824V31.4149ZM108.042 32.2392C107.759 32.1145 107.455 32.049 107.148 32.0466C106.847 32.0466 106.458 32.1812 106.458 32.6685C106.458 33.4458 108.383 33.118 108.383 34.6194C108.383 35.6003 107.619 35.9722 106.733 35.9722C106.256 35.9722 106.041 35.9078 105.606 35.7987L105.688 34.9906C105.991 35.1583 106.338 35.2673 106.683 35.2673C107.016 35.2673 107.462 35.0939 107.462 34.6895C107.462 33.8362 105.537 34.1889 105.537 32.7068C105.537 31.7061 106.299 31.3412 107.073 31.3412C107.429 31.3374 107.784 31.3904 108.124 31.4984L108.042 32.2392ZM55.6484 33.6442C55.6484 34.9982 54.886 35.9727 53.4907 35.9727C52.0766 35.9727 51.3324 35.0179 51.3324 33.6442C51.3324 32.2705 52.0891 31.3418 53.4907 31.3418C54.8734 31.3424 55.6484 32.2902 55.6484 33.6442ZM54.7279 33.6442C54.7279 32.8558 54.3678 32.0466 53.4907 32.0466C52.613 32.0466 52.2529 32.8558 52.2529 33.6442C52.2529 34.4534 52.5879 35.2679 53.4907 35.2679C54.3935 35.2679 54.7279 34.4534 54.7279 33.6442ZM89.6175 35.9002H88.6388L88.2599 34.8671H86.4743L86.0885 35.9002H85.1731L86.8897 31.416H87.8872L89.6175 35.9002ZM88.0191 34.1622L87.3759 32.314H87.3639L86.7311 34.1622H88.0191ZM100.186 33.6442C100.186 34.9982 99.4227 35.9727 98.0275 35.9727C96.6139 35.9727 95.8697 35.0179 95.8697 33.6442C95.8697 32.2705 96.6265 31.3418 98.0275 31.3418C99.4102 31.3424 100.186 32.2902 100.186 33.6442ZM99.2652 33.6442C99.2652 32.8558 98.9051 32.0466 98.0269 32.0466C97.1498 32.0466 96.7897 32.8558 96.7897 33.6442C96.7897 34.4534 97.1241 35.2679 98.0269 35.2679C98.9297 35.2679 99.2652 34.4534 99.2652 33.6442Z" fill="black"/>
</svg>
