<svg width="108" height="40" viewBox="0 0 108 40" fill="none" xmlns="http://www.w3.org/2000/svg">
<g clip-path="url(#clip0_97_1086)">
<path fill-rule="evenodd" clip-rule="evenodd" d="M21.1102 18.4589H105.526V19.6737H21.6509L21.1102 18.4589Z" fill="#0E1552"/>
<path d="M81.8108 18.5353C83.0507 18.4818 84.345 18.5353 85.5317 18.4283C86.8265 17.4627 86.6108 15.9615 89.0369 14.5138C89.5764 14.1918 89.1988 13.2802 89.2526 12.6906C89.3075 12.5831 89.3607 12.4761 89.5215 12.5296C90.4387 13.0121 90.6539 14.1383 91.4092 15.1034C91.6792 15.4255 91.7868 15.908 91.733 16.3906C91.733 16.8737 91.0853 16.5516 90.8158 16.8196C90.4382 17.1952 90.0073 18.1068 90.4919 18.1603C91.4624 18.2138 92.5953 18.3208 93.8352 17.8923C94.5367 17.0876 94.2129 15.4255 93.8352 14.1918C93.7814 14.0848 93.9434 13.9772 93.9972 13.9772C94.8606 13.6552 95.6691 13.2802 96.6401 13.1726C96.909 13.8162 96.9628 14.7813 96.802 15.4249C96.5851 16.2295 95.7766 16.1755 95.292 16.551C94.9681 16.8731 94.4297 17.7847 94.9144 17.9452C95.8848 18.4278 97.0715 17.8917 98.2038 17.8917C98.2038 17.8917 98.5815 17.7847 98.5815 17.6772C98.6885 16.8191 99.0129 16.0685 99.4438 15.1569C99.4976 15.1028 99.6595 14.8348 100.037 14.8348C100.469 15.2104 100.739 15.7999 101.116 16.39C101.061 17.1406 99.2286 17.6237 99.8752 18.0522C100.361 18.3743 102.14 18.4278 103.218 18.1597C104.136 17.9987 104.836 17.3016 105.538 16.765C105.969 16.39 105.106 15.8534 105.053 15.7464C104.189 14.8883 103.381 13.8691 103.003 12.6901C102.626 11.5099 103.165 10.2233 103.219 8.93608C103.327 7.86343 104.514 6.25474 103.597 5.61115C97.8273 1.53565 94.5378 3.25188 91.4641 3.89491C89.6313 3.84142 87.4742 2.87576 85.9104 4.27048C83.3224 6.41577 80.9496 8.56051 78.9 11.4029C78.0377 12.4755 77.3912 13.7622 77.2825 15.1028C77.2287 15.6394 77.2287 16.0144 77.2825 16.4975C77.2825 16.8731 77.1754 17.3016 77.4444 17.5702C77.8758 18.0527 78.9 17.7307 79.332 17.2481C79.9254 16.4975 81.1647 16.765 81.7581 16.0144C82.6753 14.8883 83.0518 13.3331 84.3999 12.6901C84.9932 12.4755 84.7775 13.9232 84.5618 14.4598C84.2391 15.3714 84.0234 16.4975 83.1599 16.8731C82.9442 16.9801 82.6753 16.8731 82.5134 17.0336C82.0819 17.3557 81.7581 17.7847 81.488 18.3208C81.4331 18.4283 81.65 18.5353 81.8108 18.5353Z" stroke="white" stroke-width="18.7283" stroke-miterlimit="2.613" stroke-linecap="round" stroke-linejoin="round"/>
<path fill-rule="evenodd" clip-rule="evenodd" d="M13.8437 8.20164L25.6468 34.8573H23.0073L19.3497 26.4166H8.30069L4.6431 34.8573H2.00299L13.8437 8.20164ZM18.4443 24.3432L13.8437 13.7176L9.20557 24.3426L18.4443 24.3432ZM29.793 22.6264V24.7967C30.1757 24.083 30.7405 23.4583 31.4868 22.9223C32.2336 22.3868 33.2186 22.1199 34.4434 22.1199C36.4146 22.1199 37.9789 22.744 39.1365 23.9938C40.294 25.2431 40.8734 26.8261 40.8734 28.7419C40.8734 30.9028 40.2274 32.5421 38.9359 33.6599C37.6444 34.7777 36.1658 35.3371 34.5006 35.3371C33.5246 35.3371 32.7161 35.1727 32.0751 34.8434C31.4335 34.5147 30.922 34.153 30.5393 33.7585C30.4048 33.6081 30.2855 33.4676 30.1802 33.3356C30.0748 33.2046 29.9841 33.082 29.9079 32.9695V40.7767H28.1855V22.6264H29.793ZM34.5012 34.0115C35.9747 34.0115 37.0992 33.4899 37.8747 32.4474C38.6496 31.4048 39.0373 30.1689 39.0373 28.7413C39.0373 28.553 39.0277 28.3648 39.0087 28.1774L38.951 27.614C38.7599 26.581 38.3005 25.6315 37.5732 24.7678C36.846 23.9041 35.7456 23.4711 34.272 23.4711C32.8746 23.4711 31.7792 24.0022 30.9853 25.0637C30.1914 26.1246 29.7941 27.3505 29.7941 28.7413C29.7941 30.3951 30.2631 31.6868 31.201 32.6168C32.1373 33.5468 33.2377 34.0115 34.5012 34.0115ZM44.3186 22.6264H46.041V28.0933L51.6103 22.6264H53.6767L47.677 28.3189L54.1647 34.8573H51.9543L46.041 28.7413V34.8573H44.3186V22.6264ZM59.2168 23.9788H54.7961V22.6264H65.3605V23.9788H60.9397V34.8573H59.2168V23.9788ZM69.5223 22.6264V31.5034L77.9912 21.9215V34.8573H76.2688V26.0644L67.8 35.6464V22.6264H69.5223ZM82.2393 22.6264H83.9622V28.0933L89.531 22.6264H91.5979L85.5977 28.3189L92.0865 34.8573H89.8756L83.9622 28.7413V34.8573H82.2393V22.6264ZM104.802 22.6264H106.41V34.8573H104.802V32.7722C104.305 33.6549 103.64 34.3029 102.807 34.7164C102.002 35.1234 101.112 35.3359 100.209 35.3366C98.5248 35.3366 97.0232 34.7771 95.7026 33.6593C94.382 32.5415 93.722 30.9022 93.722 28.7413C93.722 26.9002 94.3108 25.3361 95.4869 24.049C96.6646 22.7618 98.248 22.1188 100.238 22.1188C100.544 22.1188 100.864 22.1422 101.199 22.189C101.534 22.2358 101.883 22.3249 102.247 22.4564C102.706 22.6442 103.161 22.9211 103.611 23.2878C104.061 23.6539 104.458 24.1571 104.802 24.7956L104.802 22.6264ZM100.21 34.0115C101.492 34.0115 102.578 33.5468 103.468 32.6168C104.358 31.6868 104.802 30.3951 104.802 28.7413C104.802 27.351 104.401 26.1252 103.598 25.0637C102.793 24.0022 101.684 23.4711 100.268 23.4711C98.852 23.4711 97.7124 23.9832 96.8512 25.0074C95.9901 26.0315 95.5597 27.2758 95.5597 28.7413C95.5597 30.1132 95.971 31.334 96.7941 32.4056C97.6171 33.476 98.7551 34.0115 100.21 34.0115ZM81.038 12.529C81.5938 12.32 81.6947 12.1456 81.6729 11.3884C81.6639 11.1181 81.2616 10.6222 80.9596 10.5564C80.5349 10.4606 80.057 11.1532 79.9881 11.5583C79.9354 11.8542 79.9214 12.0721 80.0491 12.2593C80.22 12.5162 80.815 11.9935 80.8767 11.8107C80.982 11.5193 80.6918 11.8107 80.5573 11.8849C80.4128 11.9634 80.3382 11.9194 80.2945 11.8542C80.22 11.7456 80.1982 11.6101 80.2945 11.4056C80.3954 11.1928 80.8066 10.9833 81.0386 11.2273C81.3143 11.5149 80.9641 12.1807 80.8111 12.4638C80.8111 12.4638 80.8408 12.6031 81.038 12.529ZM78.9622 14.1795C78.9448 14.1617 78.4237 13.7137 78.2965 13.8747C78.1346 14.0797 78.2394 14.5712 78.4674 14.7022L78.9622 14.1795ZM95.9273 17.6493C96.7806 17.5969 97.249 17.4576 98.0984 17.3751C98.2693 17.3623 98.2604 16.8179 98.3085 16.7003C98.6195 15.947 98.9125 15.5859 99.1753 14.8197C99.2762 14.5239 98.847 14.1622 98.5142 14.1009C98.3522 14.0753 98.2648 14.1009 98.2648 14.1009C98.0418 13.9527 97.8228 13.805 97.6037 13.6568C97.6037 13.6568 97.3717 13.6134 97.3544 13.7003C97.1796 14.4626 97.6171 15.5118 97.026 16.03C96.3604 16.6134 95.4062 16.892 95.2796 17.393C95.2796 17.393 95.8483 17.6537 95.9273 17.6493ZM91.0718 17.6889C91.8159 17.6582 92.5689 17.8716 93.1992 17.4799C94.1898 16.8658 93.4967 15.2332 93.3264 14.1143C92.7969 13.605 92.5341 13.5136 92.5605 13.5225C92.0394 13.3136 91.4617 13.2528 90.9059 13.1609C90.7485 13.1347 90.7569 13.2874 90.9059 13.4306C90.9805 13.5002 91.7116 14.798 91.7335 14.8632C91.9217 15.3898 92.0529 15.9604 92.0663 16.522C92.0792 16.9751 91.5323 17.0051 91.1558 17.1968C91.0157 17.2665 91.0421 17.4933 90.9894 17.6454L91.0718 17.6889ZM82.3951 18.0455C83.4456 17.9758 84.448 18.1675 85.5378 17.6883C86.4393 16.3994 87.0478 15.5809 88.4322 14.3272C89.0581 13.761 88.4323 12.3028 89.0099 11.8631C90.1652 12.0024 90.9754 12.3596 91.8988 12.7597C93.4306 13.4217 94.9686 13.3297 96.3649 12.7118C96.6232 12.5987 95.9973 11.8319 96.282 11.8631C96.7941 11.9155 97.639 12.8906 97.7701 13.0255C98.6716 13.9271 100.304 14.0747 100.909 15.2326C101.228 15.8422 101.824 15.7598 101.777 16.2691C101.727 16.809 100.887 17.0224 100.992 17.5535C101.12 18.1803 102.609 17.9541 103.143 17.6448C103.856 17.2308 104.548 17.0481 104.854 16.4429C104.202 15.2761 102.828 14.2748 102.565 12.8945C102.219 11.0836 102.858 9.19795 103.143 7.38253C103.195 7.03426 102.78 6.76847 102.648 6.44194C102.482 6.01121 103.476 6.44194 103.143 6.44194C103.3 6.44194 103.515 6.03294 103.335 5.8758C101.474 4.2777 99.005 3.37222 96.366 3.30702C95.1143 3.27638 92.0708 4.40864 91.5542 4.32172C89.7024 4.008 87.2327 3.26802 85.9501 4.56132C85.3898 5.123 84.5757 6.19397 83.8838 6.66817C81.6336 8.20554 79.9516 10.304 78.4288 12.3981C77.6712 13.4384 77.3782 15.1279 77.7676 16.6563C77.7895 16.7433 77.9469 16.6301 78.0959 16.6998C78.2489 16.7739 78.3414 16.9912 78.5117 17.0174C78.9975 17.0999 79.1028 16.5388 79.3392 16.3861C79.974 15.9682 80.8941 16.0857 81.4896 15.6244C81.9446 15.2716 81.9625 14.5534 82.3127 14.1004C82.9823 13.2383 83.8754 12.4198 85.1271 11.9495C85.1971 11.9239 85.4117 12.0498 85.3725 12.1763C84.834 13.8875 85.2061 16.3471 83.3896 17.3311C83.1005 17.4877 82.4438 17.4532 82.3127 17.958C82.2813 18.085 82.3032 18.0499 82.3951 18.0455ZM81.8168 18.5375C83.0512 18.4723 84.3163 18.5548 85.5378 18.4506C86.8292 17.4359 86.571 15.9687 89.0099 14.506C89.5394 14.1884 89.1892 13.2779 89.2592 12.6689C89.2682 12.5819 89.3646 12.4644 89.5046 12.534C90.4459 13.0088 90.6644 14.1232 91.4046 15.09C91.6674 15.4382 91.7722 15.8996 91.7329 16.3872C91.6937 16.8876 91.0763 16.531 90.7743 16.8313C90.437 17.1667 90.0167 18.1029 90.4941 18.1374C91.4657 18.2115 92.5952 18.2985 93.8032 17.9112C94.5002 17.0882 94.1764 15.4121 93.7987 14.1929C93.7595 14.0664 93.9259 13.9839 93.9651 13.9705C94.8319 13.6657 95.669 13.2523 96.6103 13.1609C96.8815 13.814 96.9252 14.7935 96.7767 15.4472C96.5929 16.2523 95.739 16.1654 95.2886 16.5705C94.9294 16.8881 94.4341 17.7591 94.8773 17.9597C95.8752 18.4082 97.0793 17.8989 98.1819 17.8683C98.1819 17.8683 98.5629 17.7724 98.5713 17.6939C98.6542 16.8319 99.0044 16.0568 99.4247 15.1775C99.4594 15.1034 99.6437 14.8203 100.002 14.8203C100.475 15.1947 100.733 15.7954 101.084 16.4006C101.066 17.1578 99.2056 17.6242 99.8359 18.0466C100.344 18.3859 102.126 18.43 103.225 18.1814C104.109 17.9814 104.845 17.3239 105.541 16.7488C105.952 16.4134 105.116 15.8344 105.046 15.7609C104.188 14.9033 103.383 13.8842 102.98 12.6694C102.586 11.4764 103.124 10.1575 103.225 8.90764C103.313 7.78874 104.481 6.20345 103.558 5.54649C97.8312 1.47544 94.5394 3.20394 91.4657 3.84864C89.601 3.80518 87.4769 2.8384 85.8706 4.20582C83.3229 6.3695 80.9153 8.49864 78.8394 11.3243C77.9772 12.5 77.3031 13.7844 77.1894 15.0905C77.1457 15.6216 77.1586 16.035 77.1894 16.5226C77.2112 16.8664 77.1104 17.306 77.3513 17.5546C77.8063 18.0293 78.8484 17.7329 79.2552 17.2408C79.8558 16.5137 81.1254 16.7839 81.7339 16.0306C82.6573 14.8816 83.0164 13.3398 84.3824 12.7129C84.9775 12.4387 84.7371 13.9142 84.5444 14.4631C84.2295 15.3513 84.0014 16.5181 83.1391 16.8837C82.938 16.9706 82.6618 16.8664 82.4999 17.0057C82.0623 17.3802 81.7603 17.807 81.4885 18.3168C81.4274 18.4333 81.6465 18.5464 81.8168 18.5375Z" fill="#0E1552"/>
</g>
<defs>
<clipPath id="clip0_97_1086">
<rect width="108" height="40" fill="white"/>
</clipPath>
</defs>
</svg>
