<svg width="126" height="30" viewBox="0 0 126 30" fill="none" xmlns="http://www.w3.org/2000/svg">
<path d="M34.0679 5.15591H31.7522V8.26545H29.6893V10.2578H31.7522V22.4539H34.0679V10.2578H36.7813V8.26545H34.0679V5.15591ZM51.9397 22.4539H54.2554V4.26215H51.9397V22.4539ZM56.6266 22.4539H58.9423V4.26215H56.6297L56.6266 22.4539ZM81.2235 12.2594L88.6331 4.26215H85.6914L78.0351 12.5015V4.26215H75.7688V22.4725H78.0351V15.4404L79.6262 13.8266L86.7521 22.4694H89.8664L81.2235 12.2594ZM118.506 8.24373C116.89 8.24373 115.589 8.93577 114.59 10.3074V8.32131H112.274V22.4539H114.59V15.8966C114.59 14.2518 114.655 12.8243 114.944 11.9957C115.327 10.8971 116.375 10.4161 117.985 10.4285C119.196 10.4378 120.011 10.8443 120.421 11.6915C120.701 12.2843 120.846 13.268 120.846 14.6583V22.4539H123.174V14.2518C123.174 10.2516 121.614 8.24373 118.506 8.24373ZM111.226 9.11577C109.924 8.29028 109.067 8.24683 108.747 8.24683C108.078 8.22147 107.421 8.42736 106.884 8.83026C106.536 9.08163 106.181 9.48506 105.694 10.1368V8.31821H103.381V22.4539H105.694V15.5397C105.657 12.5853 106.308 10.5867 108.182 10.4905C108.568 10.4688 109.126 10.5805 109.844 11.0491L111.226 9.11577ZM66.1853 13.0539L66.1545 13.0167C65.5964 12.3712 65.2819 11.8933 65.0938 11.4309C64.9779 11.1383 64.9274 10.8236 64.9458 10.5092C64.9469 10.3234 64.9879 10.1401 65.0662 9.97189C65.1444 9.80366 65.258 9.65451 65.3991 9.53472C65.7095 9.27318 66.1044 9.13518 66.5091 9.1468C66.9716 9.1468 67.354 9.28955 67.6808 9.58127C67.8304 9.70478 67.9508 9.86015 68.0334 10.0362C68.1161 10.2122 68.1589 10.4045 68.1588 10.5992C68.1588 10.984 67.9953 11.344 67.7703 11.6543C67.5544 11.9491 67.1782 12.275 66.6386 12.697L66.2254 13.0229L66.1853 13.0539ZM66.0898 21.2808C65.1894 21.2808 64.548 21.0419 63.9498 20.4833C63.6532 20.2218 63.4146 19.9004 63.2493 19.5401C63.0841 19.1798 62.9961 18.7885 62.9909 18.3916C62.9909 17.8703 63.182 17.4296 63.5706 16.9858C63.8882 16.6227 64.5079 16.1479 65.2295 15.6111L65.9233 15.0897L65.9664 15.0587L69.3983 19.3195L69.3552 19.3537C69.1393 19.5244 68.9204 19.7168 68.7015 19.8999C68.3068 20.2381 67.8998 20.5826 67.5452 20.8185C67.1094 21.1003 66.6072 21.2578 66.0898 21.2808ZM66.5677 7.80926C65.6427 7.80926 64.8718 8.08856 64.2767 8.64716C63.9881 8.91365 63.7597 9.23942 63.6071 9.60242C63.4544 9.96542 63.3809 10.3572 63.3917 10.7512C63.3917 11.1733 63.5459 11.6822 63.8512 12.2594C64.1256 12.8087 64.6467 13.4542 65.0321 13.8949L65.0722 13.9384L65.026 13.9725L64.3661 14.4876C63.3301 15.2945 62.4297 15.9928 62.0227 16.6196C61.6861 17.1502 61.5114 17.7684 61.52 18.3978C61.52 19.664 61.9117 20.7036 62.6825 21.4857C63.5058 22.3143 64.5018 22.6432 65.7167 22.7177C66.5924 22.7673 67.4557 22.5625 68.2143 22.0877C68.575 21.8612 68.9451 21.5726 69.5124 21.0915L70.2555 20.474L70.2987 20.4429L71.8898 22.4136H73.7923L71.4273 19.5554L73.3853 17.7989L72.4972 16.6724L70.5238 18.4413L70.493 18.3947L67.1042 14.1928L67.1474 14.1618L67.6623 13.7522C68.2975 13.2525 68.757 12.8894 69.0499 12.4984C69.4517 11.9822 69.6689 11.3449 69.6666 10.6892C69.6666 9.96608 69.4693 9.28645 68.9666 8.76509C68.6532 8.44878 68.2785 8.20071 67.8659 8.03628C67.4532 7.87185 67.0113 7.79458 66.5677 7.80926ZM39.2666 13.9135C39.4007 12.91 39.9048 11.9939 40.6788 11.3471C41.499 10.6426 42.4056 10.2919 43.4108 10.2919C44.4129 10.2919 45.2917 10.6395 46.0441 11.3284C46.7995 12.0329 47.2528 12.8925 47.4008 13.9135H39.2666ZM47.4286 18.2148C46.4295 19.7571 45.156 20.5267 43.6051 20.5267C42.3192 20.5267 41.2524 20.083 40.4229 19.1861C39.5964 18.2998 39.1404 17.1275 39.1494 15.9121H49.8398C49.9539 13.7553 49.4544 11.9398 48.3289 10.4719C47.1356 8.89543 45.4767 8.10718 43.38 8.10718C41.3356 8.10718 39.7014 8.84888 38.4772 10.3199C37.3425 11.6977 36.7782 13.4449 36.7782 15.5893C36.7782 17.6003 37.3826 19.2978 38.616 20.6633C39.8401 22.0288 41.4466 22.6991 43.4355 22.6991C46.1027 22.6991 48.1316 21.5477 49.4976 19.2233L47.4286 18.2148Z" fill="#0E1552"/>
<path d="M90.9395 13.9135C91.0743 12.9095 91.5796 11.9934 92.3548 11.3471C93.175 10.6426 94.0754 10.2919 95.0837 10.2919C96.0858 10.2919 96.9646 10.6395 97.717 11.3285C98.4724 12.0329 98.9257 12.8925 99.0737 13.9135H90.9395ZM99.1014 18.2148C98.0993 19.7571 96.8289 20.5267 95.2779 20.5267C93.9921 20.5267 92.9252 20.083 92.0958 19.1861C91.2696 18.2997 90.8136 17.1275 90.8223 15.9121H101.513C101.627 13.7553 101.124 11.9398 100.002 10.4719C98.8085 8.89544 97.1496 8.10719 95.0528 8.10719C93.0085 8.10719 91.3743 8.84889 90.1501 10.3199C89.0123 11.6978 88.4511 13.4449 88.4511 15.5893C88.4511 17.6003 89.0586 19.2978 90.2858 20.6633C91.513 22.0288 93.1195 22.6991 95.1083 22.6991C97.7756 22.6991 99.8014 21.5477 101.17 19.2233L99.1014 18.2148ZM14.0993 14.3542L8.27149 17.6375L7.34337 18.3575L11.3766 9.20888L11.6109 8.43925L11.8514 9.21508L14.0993 14.3542ZM11.0405 4.3056L2.91858 22.6774H3.3811L15.0058 16.39L17.4418 22.4725H20.2477L12.1937 4.3056H11.0405ZM27.4476 14.8973C26.5485 14.4254 25.6332 13.9855 24.7033 13.5784C23.5902 13.0849 23.029 12.576 23.029 11.8871C23.029 11.4588 23.2079 11.0119 23.5594 10.7202C23.8848 10.4366 24.3006 10.2802 24.7311 10.2795C25.5698 10.2795 26.1927 10.745 26.6737 11.8933L28.6379 10.8661C28.1599 10.0033 27.7436 9.33301 27.1455 8.86751C26.5041 8.37157 25.7187 8.1012 24.9099 8.09788C23.769 8.09788 22.807 8.47028 22.0022 9.20267C21.6138 9.55528 21.3057 9.98829 21.0992 10.472C20.8927 10.9557 20.7926 11.4787 20.8058 12.005C20.8058 13.2525 21.6846 14.438 22.5172 14.9159C23.5409 15.5211 24.4104 15.8686 25.4033 16.3341C26.4825 16.871 27.2441 17.4451 27.0899 18.5375C27.0255 19.0969 26.7534 19.6112 26.3283 19.9775C25.909 20.3747 25.4372 20.5143 24.7866 20.5143C23.5779 20.5143 22.6405 19.7788 21.9745 18.3079L19.8962 19.1923C20.3032 20.2661 20.886 21.1474 21.7401 21.7619C22.6035 22.3825 23.6118 22.6836 24.7588 22.6836C26.0477 22.6836 27.1485 22.2584 28.0582 21.4112C28.9709 20.5578 29.3471 19.6609 29.4149 18.3699C29.4827 17.1938 29.085 15.8035 27.4476 14.8973Z" fill="#0E1552"/>
</svg>
