<svg width="138" height="22" viewBox="0 0 138 22" fill="none" xmlns="http://www.w3.org/2000/svg">
<path d="M40.0678 1.15591H37.7521V4.26545H35.6893V6.25779H37.7521V18.4539H40.0678V6.25779H42.7813V4.26545H40.0678V1.15591ZM57.9396 18.4539H60.2553V0.262146H57.9396V18.4539ZM62.6265 18.4539H64.9422V0.262146H62.6296L62.6265 18.4539ZM87.2234 8.25945L94.633 0.262146H91.6914L84.0351 8.50151V0.262146H81.7687V18.4725H84.0351V11.4404L85.6262 9.82663L92.7521 18.4694H95.8664L87.2234 8.25945ZM124.506 4.24373C122.89 4.24373 121.589 4.93577 120.59 6.30745V4.32131H118.274V18.4539H120.59V11.8966C120.59 10.2518 120.654 8.82425 120.944 7.99566C121.327 6.89708 122.375 6.41606 123.985 6.42848C125.196 6.43779 126.01 6.84432 126.421 7.69154C126.701 8.28427 126.846 9.26803 126.846 10.6583V18.4539H129.174V10.2518C129.174 6.25159 127.614 4.24373 124.506 4.24373ZM117.226 5.11577C115.924 4.29028 115.067 4.24683 114.747 4.24683C114.078 4.22147 113.42 4.42736 112.884 4.83026C112.536 5.08163 112.181 5.48506 111.694 6.13676V4.31821H109.381V18.4539H111.694V11.5397C111.657 8.5853 112.307 6.58675 114.182 6.49054C114.568 6.46882 115.126 6.58054 115.844 7.04914L117.226 5.11577ZM72.1853 9.0539L72.1545 9.01666C71.5963 8.37117 71.2818 7.89325 71.0937 7.43085C70.9778 7.13827 70.9273 6.8236 70.9457 6.50916C70.9468 6.32342 70.9879 6.14011 71.0661 5.97189C71.1444 5.80366 71.258 5.65451 71.399 5.53472C71.7095 5.27318 72.1044 5.13518 72.5091 5.1468C72.9716 5.1468 73.3539 5.28955 73.6808 5.58127C73.8303 5.70478 73.9507 5.86015 74.0334 6.03617C74.116 6.21219 74.1588 6.40448 74.1587 6.59916C74.1587 6.98397 73.9953 7.34396 73.7702 7.6543C73.5544 7.94911 73.1782 8.27496 72.6386 8.69702L72.2254 9.02287L72.1853 9.0539ZM72.0897 17.2808C71.1893 17.2808 70.548 17.0419 69.9498 16.4833C69.6531 16.2218 69.4145 15.9004 69.2493 15.5401C69.0841 15.1798 68.996 14.7885 68.9908 14.3916C68.9908 13.8703 69.182 13.4296 69.5705 12.9858C69.8881 12.6227 70.5079 12.1479 71.2294 11.6111L71.9232 11.0897L71.9664 11.0587L75.3983 15.3195L75.3551 15.3537C75.1393 15.5244 74.9203 15.7168 74.7014 15.8999C74.3067 16.2381 73.8997 16.5826 73.5451 16.8185C73.1093 17.1003 72.6072 17.2578 72.0897 17.2808ZM72.5676 3.80926C71.6426 3.80926 70.8717 4.08856 70.2766 4.64716C69.988 4.91365 69.7597 5.23942 69.607 5.60242C69.4543 5.96542 69.3809 6.35719 69.3917 6.75122C69.3917 7.17328 69.5458 7.68223 69.8511 8.25945C70.1255 8.80874 70.6466 9.45423 71.0321 9.89491L71.0722 9.93835L71.0259 9.97249L70.366 10.4876C69.33 11.2945 68.4296 11.9928 68.0226 12.6196C67.686 13.1502 67.5113 13.7684 67.52 14.3978C67.52 15.664 67.9116 16.7036 68.6825 17.4857C69.5057 18.3143 70.5017 18.6432 71.7166 18.7177C72.5923 18.7673 73.4557 18.5625 74.2142 18.0877C74.575 17.8612 74.945 17.5726 75.5124 17.0915L76.2555 16.474L76.2986 16.4429L77.8897 18.4136H79.7922L77.4272 15.5554L79.3852 13.7989L78.4972 12.6724L76.5237 14.4413L76.4929 14.3947L73.1042 10.1928L73.1473 10.1618L73.6623 9.75215C74.2975 9.25251 74.7569 8.88942 75.0498 8.4984C75.4516 7.98222 75.6688 7.34486 75.6665 6.68916C75.6665 5.96608 75.4692 5.28645 74.9666 4.76509C74.6532 4.44878 74.2785 4.20071 73.8658 4.03628C73.4531 3.87185 73.0112 3.79458 72.5676 3.80926ZM45.2665 9.91353C45.4006 8.90998 45.9047 7.99387 46.6788 7.34706C47.499 6.64261 48.4055 6.29193 49.4107 6.29193C50.4129 6.29193 51.2917 6.6395 52.044 7.32844C52.7995 8.0329 53.2527 8.89253 53.4008 9.91353H45.2665ZM53.4285 14.2148C52.4295 15.7571 51.156 16.5267 49.605 16.5267C48.3192 16.5267 47.2523 16.083 46.4228 15.1861C45.5964 14.2998 45.1404 13.1275 45.1494 11.9121H55.8398C55.9539 9.75525 55.4543 7.9398 54.3289 6.47192C53.1356 4.89543 51.4767 4.10718 49.3799 4.10718C47.3356 4.10718 45.7013 4.84888 44.4772 6.31986C43.3425 7.69774 42.7782 9.44492 42.7782 11.5893C42.7782 13.6003 43.3825 15.2978 44.6159 16.6633C45.8401 18.0288 47.4466 18.6991 49.4354 18.6991C52.1026 18.6991 54.1315 17.5477 55.4975 15.2233L53.4285 14.2148Z" fill="#FF4E3E"/>
<path d="M96.9394 9.91354C97.0743 8.90954 97.5795 7.99336 98.3547 7.34708C99.1749 6.64262 100.075 6.29194 101.084 6.29194C102.086 6.29194 102.965 6.63951 103.717 7.32846C104.472 8.03291 104.926 8.89254 105.074 9.91354H96.9394ZM105.101 14.2148C104.099 15.7571 102.829 16.5267 101.278 16.5267C99.9921 16.5267 98.9252 16.083 98.0957 15.1861C97.2695 14.2997 96.8136 13.1275 96.8223 11.9121H107.513C107.627 9.75527 107.124 7.93981 106.002 6.47193C104.808 4.89544 103.15 4.10719 101.053 4.10719C99.0084 4.10719 97.3742 4.84889 96.1501 6.31987C95.0123 7.69775 94.4511 9.44493 94.4511 11.5893C94.4511 13.6003 95.0585 15.2978 96.2857 16.6633C97.513 18.0288 99.1194 18.6991 101.108 18.6991C103.775 18.6991 105.801 17.5477 107.17 15.2233L105.101 14.2148ZM20.0992 10.3542L14.2714 13.6375L13.3433 14.3575L17.3765 5.20888L17.6108 4.43925L17.8513 5.21508L20.0992 10.3542ZM17.0404 0.305603L8.91852 18.6774H9.38104L21.0057 12.39L23.4417 18.4725H26.2477L18.1936 0.305603H17.0404ZM33.4476 10.8973C32.5485 10.4254 31.6331 9.98548 30.7033 9.57837C29.5901 9.08494 29.0289 8.576 29.0289 7.88706C29.0289 7.4588 29.2078 7.01192 29.5593 6.7202C29.8847 6.43664 30.3006 6.28024 30.731 6.27953C31.5697 6.27953 32.1926 6.74503 32.6736 7.89326L34.6378 6.86606C34.1599 6.00333 33.7436 5.33301 33.1454 4.86751C32.504 4.37157 31.7187 4.1012 30.9099 4.09788C29.769 4.09788 28.8069 4.47028 28.0022 5.20267C27.6137 5.55528 27.3056 5.98829 27.0991 6.47201C26.8926 6.95572 26.7925 7.47868 26.8058 8.00498C26.8058 9.25253 27.6846 10.438 28.5171 10.9159C29.5408 11.5211 30.4103 11.8686 31.4032 12.3341C32.4824 12.871 33.2441 13.4451 33.0899 14.5375C33.0254 15.0969 32.7534 15.6112 32.3283 15.9775C31.9089 16.3747 31.4371 16.5143 30.7865 16.5143C29.5778 16.5143 28.6404 15.7788 27.9744 14.3079L25.8961 15.1923C26.3032 16.2661 26.8859 17.1474 27.7401 17.7619C28.6034 18.3825 29.6117 18.6836 30.7588 18.6836C32.0477 18.6836 33.1485 18.2584 34.0581 17.4112C34.9708 16.5578 35.347 15.6609 35.4148 14.3699C35.4827 13.1938 35.0849 11.8035 33.4476 10.8973Z" fill="#FF4E3E"/>
</svg>
