<svg width="14" height="14" viewBox="0 0 14 14" fill="none" xmlns="http://www.w3.org/2000/svg">
<g clip-path="url(#clip0_49_1546)">
<path d="M0.016832 9.88396C0.0496299 10.6278 0.169923 11.1392 0.342243 11.5824C0.520012 12.0528 0.793503 12.4739 1.15182 12.824C1.50191 13.1795 1.92582 13.4558 2.39075 13.6308C2.83645 13.8031 3.34519 13.9234 4.08906 13.9562C4.83849 13.9918 5.0764 14 6.97716 14C8.87792 14 9.11584 13.9918 9.86249 13.959C10.6064 13.9262 11.1178 13.8058 11.5608 13.6336C12.0313 13.4558 12.4524 13.1823 12.8025 12.824C13.158 12.4739 13.4342 12.05 13.6093 11.5851C13.7816 11.1392 13.9019 10.6306 13.9347 9.88674C13.9703 9.13731 13.9785 8.89939 13.9785 6.99863C13.9785 5.09787 13.9703 4.85995 13.9375 4.1133C13.9047 3.36943 13.7843 2.85802 13.612 2.41488C13.4342 1.9445 13.158 1.52337 12.8025 1.17328C12.4524 0.817737 12.0285 0.541469 11.5636 0.366477C11.1178 0.194156 10.6091 0.0738633 9.86516 0.0410656C9.11861 0.00816102 8.88059 4.24073e-05 6.97983 4.25735e-05C5.07907 4.27397e-05 4.84116 0.00816139 4.09451 0.0410661C3.35064 0.073864 2.83923 0.194157 2.3962 0.366478C1.45533 0.730242 0.711454 1.47412 0.347691 2.41488C0.175477 2.86069 0.0550776 3.36943 0.0222798 4.1133C-0.010517 4.85996 -0.0187433 5.09787 -0.0187432 6.99863C-0.018743 8.8994 -0.0159649 9.13731 0.016832 9.88396ZM1.27756 4.168C1.30768 3.48427 1.42253 3.11506 1.51825 2.86892C1.7535 2.25901 2.23755 1.77496 2.84746 1.53971C3.0936 1.44399 3.46548 1.32914 4.14654 1.29912C4.88496 1.26622 5.10642 1.2581 6.97438 1.2581C8.84234 1.2581 9.06658 1.26622 9.80234 1.29912C10.4861 1.32914 10.8553 1.44399 11.1014 1.53971C11.4049 1.65188 11.6812 1.82965 11.9054 2.06212C12.1379 2.28914 12.3157 2.56263 12.4278 2.86614C12.5236 3.11228 12.6384 3.48427 12.6684 4.16522C12.7013 4.90365 12.7095 5.12522 12.7095 6.99318C12.7095 8.86115 12.7013 9.08539 12.6684 9.82104C12.6384 10.5048 12.5236 10.874 12.4278 11.1201C12.3157 11.4237 12.1379 11.6999 11.9027 11.9242C11.6757 12.1567 11.4023 12.3345 11.0986 12.4466C10.8525 12.5423 10.4805 12.6571 9.79956 12.6872C9.06114 12.72 8.83957 12.7283 6.97171 12.7283C5.10098 12.7283 4.87951 12.72 4.14376 12.6872C3.46003 12.6571 3.09082 12.5423 2.84468 12.4466C2.54117 12.3345 2.2649 12.1567 2.04066 11.9242C1.80819 11.6972 1.63043 11.4237 1.51825 11.1201C1.42253 10.874 1.30769 10.5021 1.27756 9.82104C1.24476 9.08261 1.23654 8.86115 1.23654 6.99318C1.23654 5.12522 1.24476 4.90643 1.27756 4.168Z" fill="white"/>
<path d="M6.97391 10.5947C8.95939 10.5947 10.5703 8.98391 10.5703 6.99832C10.5703 5.01273 8.95939 3.40192 6.97391 3.40192C4.98832 3.40192 3.3775 5.01273 3.3775 6.99832C3.3775 8.98391 4.98832 10.5947 6.97391 10.5947ZM6.97391 4.66542C8.26199 4.66542 9.30681 5.71014 9.30681 6.99832C9.30681 8.28651 8.26199 9.33122 6.97391 9.33122C5.68572 9.33122 4.64101 8.28651 4.64101 6.99832C4.64101 5.71014 5.68572 4.66542 6.97391 4.66542Z" fill="white"/>
<path d="M2.39588 10.7366C2.39588 10.2729 2.77183 9.89697 3.23559 9.89697C3.69925 9.89697 4.0752 10.2729 4.0752 10.7366C4.0752 11.2003 3.69925 11.5762 3.23559 11.5762C2.77183 11.5762 2.39588 11.2003 2.39588 10.7366Z" fill="white"/>
</g>
<defs>
<clipPath id="clip0_49_1546">
<rect x="14" y="14" width="14" height="14" transform="rotate(180 14 14)" fill="white"/>
</clipPath>
</defs>
</svg>
