<svg width="62" height="62" viewBox="0 0 62 62" fill="none" xmlns="http://www.w3.org/2000/svg">
<circle opacity="0.6" cx="31" cy="31" r="31" fill="#E2ECFF"/>
<path fill-rule="evenodd" clip-rule="evenodd" d="M34.513 23.1323C34.513 25.5384 36.4664 27.4889 38.876 27.4889C39.1413 27.4876 39.406 27.4621 39.6667 27.4128V36.0498C39.6667 39.6835 37.5233 41.8333 33.8843 41.8333H25.9586C22.3101 41.8333 20.1667 39.6835 20.1667 36.0498V28.1357C20.1667 24.502 22.3101 22.3333 25.9586 22.3333H34.5893C34.538 22.5965 34.5125 22.8641 34.513 23.1323ZM32.2458 34.1379L35.3418 30.1428V30.1237C35.6069 29.7676 35.5392 29.2654 35.1894 28.9918C35.0201 28.8611 34.8049 28.8045 34.5931 28.835C34.3812 28.8654 34.1908 28.9804 34.0653 29.1535L31.4552 32.5113L28.483 30.1713C28.3133 30.0391 28.0975 29.9807 27.8841 30.0094C27.6708 30.038 27.4781 30.1512 27.3494 30.3235L24.1486 34.4518C24.0361 34.592 23.9755 34.7667 23.9771 34.9464C23.9586 35.3096 24.1879 35.6394 24.5351 35.749C24.8823 35.8586 25.2598 35.7203 25.4537 35.4125L28.1305 31.9501L31.1027 34.2806C31.2717 34.4169 31.489 34.4786 31.7046 34.4517C31.9202 34.4248 32.1156 34.3115 32.2458 34.1379Z" fill="#5E81F4"/>
<ellipse opacity="0.4" cx="39.125" cy="22.875" rx="2.70833" ry="2.70833" fill="#5E81F4"/>
</svg>
