<svg width="62" height="62" viewBox="0 0 62 62" fill="none" xmlns="http://www.w3.org/2000/svg">
<circle opacity="0.6" cx="31" cy="31" r="31" fill="#FFECEB"/>
<path d="M35.0054 40.8333H24.9947C22.08 40.8333 19.7084 38.4836 19.7084 35.5949V29.8216C19.7084 26.9329 22.08 24.5833 24.9947 24.5833H35.0054C37.92 24.5833 40.2917 26.9329 40.2917 29.8216V35.5949C40.2917 38.4836 37.92 40.8333 35.0054 40.8333Z" fill="#FF7979"/>
<path opacity="0.4" d="M34.0681 27.8333C33.6226 27.8333 33.2611 27.4827 33.2611 27.0506V23.8866C33.2611 22.147 31.8022 20.7319 30.0097 20.7319C29.1845 20.7319 28.3183 21.0534 27.7018 21.6451C27.0843 22.2388 26.7421 23.0288 26.7389 23.872V27.0506C26.7389 27.4827 26.3774 27.8333 25.9319 27.8333C25.4865 27.8333 25.125 27.4827 25.125 27.0506V23.8866C25.1304 22.6041 25.6425 21.4207 26.5657 20.5347C27.4877 19.6467 28.6798 19.2011 30.0129 19.1666C32.692 19.1666 34.875 21.284 34.875 23.8866V27.0506C34.875 27.4827 34.5135 27.8333 34.0681 27.8333Z" fill="#FF7979"/>
</svg>
