<svg width="62" height="62" viewBox="0 0 62 62" fill="none" xmlns="http://www.w3.org/2000/svg">
<circle opacity="0.6" cx="31" cy="31" r="31" fill="#DCF4EC"/>
<path d="M27.9988 23.018C28.054 23.1303 28.0904 23.2505 28.1067 23.3742L28.4084 27.8591L28.5581 30.1133C28.5596 30.3451 28.596 30.5754 28.666 30.7969C28.8469 31.2264 29.2819 31.4994 29.7552 31.4804L36.9672 31.0087C37.2795 31.0035 37.5811 31.1203 37.8056 31.3334C37.9927 31.5109 38.1135 31.7432 38.1516 31.993L38.1643 32.1447C37.8659 36.2773 34.8307 39.7242 30.7067 40.614C26.5826 41.5038 22.3536 39.6241 20.3157 35.9956C19.7282 34.9414 19.3612 33.7827 19.2364 32.5875C19.1842 32.2337 19.1612 31.8763 19.1677 31.5189C19.1612 27.0883 22.3164 23.2578 26.733 22.3344C27.2646 22.2517 27.7857 22.5331 27.9988 23.018Z" fill="#54CCA1"/>
<path opacity="0.4" d="M30.9425 19.1675C35.8824 19.2932 40.0342 22.8454 40.8334 27.6299L40.8257 27.6652L40.8039 27.7166L40.807 27.8575C40.7956 28.0442 40.7236 28.2239 40.5993 28.369C40.4699 28.5201 40.2931 28.6231 40.0984 28.663L39.9797 28.6793L31.6588 29.2185C31.3821 29.2457 31.1065 29.1565 30.9007 28.9729C30.7291 28.8199 30.6195 28.6134 30.5885 28.3909L30.03 20.0821C30.0203 20.054 30.0203 20.0236 30.03 19.9955C30.0376 19.7664 30.1384 19.55 30.3099 19.3944C30.4814 19.2388 30.7092 19.1571 30.9425 19.1675Z" fill="#54CCA1"/>
</svg>
