<svg width="40" height="40" viewBox="0 0 40 40" fill="none" xmlns="http://www.w3.org/2000/svg">
<path d="M16.6667 28.2501H10.35C4.73337 28.2501 3.33337 26.8501 3.33337 21.2335V11.2335C3.33337 5.6168 4.73337 4.2168 10.35 4.2168H27.9C33.5167 4.2168 34.9167 5.6168 34.9167 11.2335" stroke="#603EFF" stroke-width="2.5" stroke-linecap="round" stroke-linejoin="round"/>
<path d="M16.6666 35.7833V28.25" stroke="#603EFF" stroke-width="2.5" stroke-linecap="round" stroke-linejoin="round"/>
<path d="M3.33337 21.5835H16.6667" stroke="#603EFF" stroke-width="2.5" stroke-linecap="round" stroke-linejoin="round"/>
<path d="M11.2333 35.7832H16.6666" stroke="#603EFF" stroke-width="2.5" stroke-linecap="round" stroke-linejoin="round"/>
<path d="M36.6666 21.3332V30.8499C36.6666 34.7999 35.6833 35.7832 31.7333 35.7832H25.8166C21.8666 35.7832 20.8833 34.7999 20.8833 30.8499V21.3332C20.8833 17.3832 21.8666 16.3999 25.8166 16.3999H31.7333C35.6833 16.3999 36.6666 17.3832 36.6666 21.3332Z" stroke="#603EFF" stroke-width="2.5" stroke-linecap="round" stroke-linejoin="round"/>
<path d="M28.7408 30.4168H28.7558" stroke="#603EFF" stroke-width="2" stroke-linecap="round" stroke-linejoin="round"/>
</svg>
