<svg width="40" height="40" viewBox="0 0 40 40" fill="none" xmlns="http://www.w3.org/2000/svg">
<path d="M5.28333 12.4004L20 20.917L34.6166 12.4503" stroke="#603EFF" stroke-width="2.5" stroke-linecap="round" stroke-linejoin="round"/>
<path d="M20 36.0171V20.9004" stroke="#603EFF" stroke-width="2.5" stroke-linecap="round" stroke-linejoin="round"/>
<path d="M36.0166 21.3836V15.2835C36.0166 12.9835 34.3667 10.1835 32.35 9.06687L23.45 4.1335C21.55 3.06683 18.45 3.06683 16.55 4.1335L7.64997 9.06687C5.63331 10.1835 3.98334 12.9835 3.98334 15.2835V24.7169C3.98334 27.0169 5.63331 29.8169 7.64997 30.9335L16.55 35.8669C17.5 36.4002 18.75 36.6669 20 36.6669C21.25 36.6669 22.5 36.4002 23.45 35.8669" stroke="#603EFF" stroke-width="2.5" stroke-linecap="round" stroke-linejoin="round"/>
<path d="M32 35.6667C34.9456 35.6667 37.3333 33.2789 37.3333 30.3334C37.3333 27.3878 34.9456 25 32 25C29.0545 25 26.6667 27.3878 26.6667 30.3334C26.6667 33.2789 29.0545 35.6667 32 35.6667Z" stroke="#603EFF" stroke-width="2.5" stroke-linecap="round" stroke-linejoin="round"/>
<path d="M38.3334 36.6667L36.6667 35" stroke="#603EFF" stroke-width="2.5" stroke-linecap="round" stroke-linejoin="round"/>
</svg>
