<svg width="40" height="40" viewBox="0 0 40 40" fill="none" xmlns="http://www.w3.org/2000/svg">
<path d="M35.3167 13.4L30.0167 8.10001C28.0167 6.10001 25.2667 6.20005 23.9167 8.35005L20.9667 13.0167L30.4167 22.4667L35.0833 19.5167C37.1 18.2334 37.2167 15.2833 35.3167 13.4Z" stroke="#603EFF" stroke-width="2.5" stroke-linecap="round" stroke-linejoin="round"/>
<path d="M30.4167 22.4502L30.8167 29.3169C31.2001 33.1502 29.8667 34.4835 26.2334 34.9168L11.7001 36.6335C8.6334 36.9835 6.43339 34.7836 6.80006 31.7336L8.43339 17.9336" stroke="#603EFF" stroke-width="2.5" stroke-linecap="round" stroke-linejoin="round"/>
<path d="M20.9667 13.0168L18.05 12.8335" stroke="#603EFF" stroke-width="2.5" stroke-linecap="round" stroke-linejoin="round"/>
<path d="M8.80005 34.6337L14.1001 29.3169" stroke="#603EFF" stroke-width="2.5" stroke-linecap="round" stroke-linejoin="round"/>
<path d="M18.3334 10.8335C18.3334 11.5168 18.2334 12.2002 18.05 12.8335C17.8667 13.5002 17.6001 14.1168 17.2501 14.7002C16.8501 15.3668 16.3501 15.9668 15.7667 16.4668C14.4501 17.6335 12.7334 18.3335 10.8334 18.3335C9.98337 18.3335 9.18337 18.2002 8.43337 17.9335C6.73337 17.3668 5.3167 16.2002 4.4167 14.7002C3.73336 13.5668 3.33337 12.2335 3.33337 10.8335C3.33337 8.46683 4.41671 6.35015 6.15004 4.98348C7.43338 3.95015 9.06671 3.3335 10.8334 3.3335C14.9834 3.3335 18.3334 6.6835 18.3334 10.8335Z" stroke="#603EFF" stroke-width="2.5" stroke-miterlimit="10" stroke-linecap="round" stroke-linejoin="round"/>
<path d="M10.8667 13.6332V8.0332" stroke="#603EFF" stroke-width="1.5" stroke-miterlimit="10" stroke-linecap="round" stroke-linejoin="round"/>
<path d="M13.6 10.833H8" stroke="#603EFF" stroke-width="1.5" stroke-miterlimit="10" stroke-linecap="round" stroke-linejoin="round"/>
</svg>
