<svg width="17" height="16" viewBox="0 0 17 16" fill="none" xmlns="http://www.w3.org/2000/svg">
<path d="M13.5441 16C12.5073 16 11.5835 15.5069 10.7661 14.514C9.94863 13.5277 9.54321 12.2216 9.54321 10.5956C9.54321 9.21616 10.2876 7.1037 11.7696 4.26489C13.2583 1.4194 14.3616 0 15.086 0C15.4914 0 15.6974 0.213243 15.6974 0.633068C15.6974 0.746354 15.2721 1.66598 14.428 3.39859C13.5773 5.1312 13.1586 6.49063 13.1586 7.46356C13.1586 8.21658 13.6372 8.83632 14.6008 9.31612C15.5579 9.79592 16.2025 10.2957 16.5215 10.8155C16.8405 11.3353 17 11.9017 17 12.5015C17 13.5877 16.681 14.4473 16.043 15.0671C15.3851 15.6868 14.561 16 13.5441 16Z" fill="#5E81F4"/>
<path d="M4.00088 16C2.96411 16 2.03367 15.5069 1.22286 14.514C0.405403 13.5277 0 12.2216 0 10.5956C0 9.21616 0.74435 7.1037 2.2264 4.26489C3.70846 1.4194 4.81834 0 5.5361 0C5.94151 0 6.14753 0.213243 6.14753 0.633068C6.14753 0.746354 5.7222 1.66598 4.87816 3.39859C4.02747 5.1312 3.60877 6.49063 3.60877 7.46356C3.60877 8.21658 4.08728 8.83632 5.05095 9.31612C6.00797 9.79592 6.65263 10.2957 6.97164 10.8155C7.29065 11.3353 7.45015 11.9017 7.45015 12.5015C7.45015 13.5877 7.13114 14.4473 6.49313 15.0671C5.85511 15.6868 5.01772 16 4.00088 16Z" fill="#5E81F4"/>
</svg>
