<svg width="20" height="20" viewBox="0 0 20 20" fill="none" xmlns="http://www.w3.org/2000/svg">
<path d="M10 17.0832H5.83335C3.33335 17.0832 1.66669 15.8332 1.66669 12.9165V7.08317C1.66669 4.1665 3.33335 2.9165 5.83335 2.9165H14.1667C16.6667 2.9165 18.3334 4.1665 18.3334 7.08317V9.58317" stroke="#603EFF" stroke-width="1.5" stroke-miterlimit="10" stroke-linecap="round" stroke-linejoin="round"/>
<path d="M14.1666 7.5L11.5583 9.58333C10.7 10.2667 9.29164 10.2667 8.43331 9.58333L5.83331 7.5" stroke="#603EFF" stroke-width="1.5" stroke-miterlimit="10" stroke-linecap="round" stroke-linejoin="round"/>
<path d="M15.1667 17.8333C16.6394 17.8333 17.8333 16.6394 17.8333 15.1667C17.8333 13.6939 16.6394 12.5 15.1667 12.5C13.6939 12.5 12.5 13.6939 12.5 15.1667C12.5 16.6394 13.6939 17.8333 15.1667 17.8333Z" stroke="#603EFF" stroke-width="1.5" stroke-linecap="round" stroke-linejoin="round"/>
<path d="M18.3333 18.3333L17.5 17.5" stroke="#603EFF" stroke-width="1.5" stroke-linecap="round" stroke-linejoin="round"/>
</svg>
