<svg width="100" height="100" viewBox="0 0 100 100" fill="none" xmlns="http://www.w3.org/2000/svg">
<g clip-path="url(#clip0_47_2551)">
<path d="M50 100C77.6142 100 100 77.6142 100 50C100 22.3858 77.6142 0 50 0C22.3858 0 0 22.3858 0 50C0 77.6142 22.3858 100 50 100Z" fill="#4353FF"/>
<path d="M68.4393 40.2532C68.4393 40.2532 62.9253 57.5452 62.4747 58.9732C61.0862 48.136 59.6847 37.3004 58.27 26.4666C48.8747 26.4666 43.8513 33.1532 41.1967 40.2106L33.9293 59.0152C33.8867 57.6672 32.9093 40.4152 32.9093 40.4152C32.3313 31.7666 24.4093 26.5026 18 26.5026L25.76 73.5359C35.6033 73.4932 40.91 66.8466 43.69 59.7886C43.69 59.7886 49.6113 44.4939 49.8553 43.7999C49.898 44.4519 54.1053 73.5332 54.1053 73.5332C63.988 73.5332 69.2973 67.2939 72.1533 60.4826L86 26.5059C76.2393 26.5059 71.094 33.1526 68.4393 40.2506V40.2532Z" fill="white"/>
</g>
<defs>
<clipPath id="clip0_47_2551">
<rect width="100" height="100" fill="white"/>
</clipPath>
</defs>
</svg>
