<svg width="100" height="100" viewBox="0 0 100 100" fill="none" xmlns="http://www.w3.org/2000/svg">
<g clip-path="url(#clip0_49_1211)">
<path d="M50 100C77.6142 100 100 77.6142 100 50C100 22.3858 77.6142 0 50 0C22.3858 0 0 22.3858 0 50C0 77.6142 22.3858 100 50 100Z" fill="#1977F3"/>
<path d="M66.2579 15.3474H55.1817C48.6087 15.3474 41.2977 18.1119 41.2977 27.6398C41.3298 30.9596 41.2977 34.1391 41.2977 37.7174H33.6936V49.8177H41.533V84.6525H55.9383V49.5878H65.4462L66.3065 37.6834H55.69C55.69 37.6834 55.7138 32.3878 55.69 30.85C55.69 27.0848 59.6079 27.3004 59.8435 27.3004C61.7079 27.3004 65.3328 27.3058 66.2634 27.3004V15.3474H66.2579Z" fill="white"/>
</g>
<defs>
<clipPath id="clip0_49_1211">
<rect width="100" height="100" fill="white"/>
</clipPath>
</defs>
</svg>
