<svg width="87" height="100" viewBox="0 0 87 100" fill="none" xmlns="http://www.w3.org/2000/svg">
<g clip-path="url(#clip0_47_2562)">
<path d="M76.0451 19.6371C75.9768 19.1371 75.5422 18.8603 75.183 18.8299C74.8245 18.7997 67.2373 18.2329 67.2373 18.2329C67.2373 18.2329 61.9678 12.9607 61.3895 12.3771C60.8108 11.7939 59.6806 11.9713 59.2419 12.1014C59.1773 12.1206 58.0906 12.4586 56.293 13.0192C54.5328 7.91445 51.4263 3.22335 45.9611 3.22335C45.8102 3.22335 45.6549 3.22952 45.4996 3.23842C43.9453 1.16685 42.02 0.266846 40.3569 0.266846C27.626 0.266846 21.5437 16.3062 19.6367 24.4569C14.6898 26.0018 11.1754 27.1001 10.7266 27.2422C7.96527 28.1151 7.87794 28.2028 7.51536 30.8251C7.24249 32.8103 0.0174561 89.1216 0.0174561 89.1216L56.3165 99.7525L86.8212 93.1018C86.8212 93.1018 76.1124 20.1371 76.0451 19.6371ZM53.1814 13.9891L48.4176 15.4751C48.4193 15.1367 48.421 14.8038 48.421 14.4398C48.421 11.2672 47.984 8.71274 47.283 6.68774C50.099 7.0439 51.9744 10.273 53.1814 13.9891ZM43.7897 7.31685C44.5726 9.2939 45.0817 12.1312 45.0817 15.96C45.0817 16.1559 45.08 16.335 45.0783 16.5162C41.9802 17.4833 38.6137 18.5333 35.2398 19.5867C37.1342 12.2182 40.6852 8.65931 43.7897 7.31685ZM40.0073 3.70828C40.5568 3.70828 41.1103 3.8963 41.6401 4.26376C37.56 6.19869 33.1866 11.072 31.3398 20.8038L23.5629 23.2312C25.7261 15.8083 30.863 3.70828 40.0073 3.70828Z" fill="#95BF46"/>
<path d="M75.1828 18.8298C74.8243 18.7997 67.2371 18.2329 67.2371 18.2329C67.2371 18.2329 61.9676 12.9607 61.3893 12.3771C61.1728 12.16 60.8809 12.0487 60.5758 12.0007L56.319 99.7518L86.821 93.1018C86.821 93.1018 76.1122 20.137 76.0449 19.637C75.9766 19.137 75.542 18.8603 75.1828 18.8298Z" fill="#5E8E3E"/>
<path d="M45.9609 35.8167L42.1995 47.0927C42.1995 47.0927 38.9041 45.3201 34.8644 45.3201C28.9422 45.3201 28.6442 49.0656 28.6442 50.0095C28.6442 55.1595 41.9647 57.1328 41.9647 69.1958C41.9647 78.6865 35.9919 84.7978 27.9384 84.7978C18.2742 84.7978 13.332 78.7362 13.332 78.7362L15.9197 70.1198C15.9197 70.1198 20.9998 74.5153 25.2865 74.5153C28.0876 74.5153 29.227 72.2927 29.227 70.6687C29.227 63.9509 18.2987 63.6513 18.2987 52.6126C18.2987 43.3218 24.9155 34.3311 38.272 34.3311C43.4184 34.3311 45.9609 35.8167 45.9609 35.8167Z" fill="white"/>
</g>
<defs>
<clipPath id="clip0_47_2562">
<rect width="87" height="100" fill="white"/>
</clipPath>
</defs>
</svg>
