<svg width="14" height="12" viewBox="0 0 14 12" fill="none" xmlns="http://www.w3.org/2000/svg">
<path d="M4.56132 11.2566C9.51442 11.2566 12.2231 7.15313 12.2231 3.59489C12.2231 3.47835 12.2206 3.36228 12.2154 3.24686C12.7412 2.86673 13.1981 2.39236 13.5587 1.85242C13.0762 2.06696 12.5569 2.2112 12.0123 2.27646C12.5682 1.94295 12.995 1.41561 13.1963 0.786975C12.6761 1.09543 12.0998 1.31953 11.4865 1.44057C10.9951 0.917165 10.2954 0.589844 9.52076 0.589844C8.03376 0.589844 6.82777 1.79575 6.82777 3.28226C6.82777 3.49368 6.85145 3.69916 6.8976 3.89629C4.65957 3.78368 2.67492 2.71222 1.34693 1.08283C1.11577 1.48071 0.982368 1.94303 0.982368 2.43634C0.982368 3.37047 1.45778 4.19536 2.18065 4.67775C1.73887 4.66419 1.3239 4.5429 0.961098 4.34104C0.960696 4.35236 0.960696 4.36335 0.960696 4.37539C0.960696 5.67954 1.88889 6.76842 3.1212 7.01515C2.89485 7.07672 2.6567 7.10987 2.41109 7.10987C2.23788 7.10987 2.069 7.09285 1.90494 7.06131C2.24775 8.13124 3.24192 8.90981 4.42054 8.93165C3.49885 9.65403 2.33781 10.0843 1.07596 10.0843C0.85892 10.0843 0.644371 10.0719 0.433594 10.047C1.62537 10.8109 3.04053 11.2567 4.5614 11.2567" fill="white"/>
</svg>
